:SAMPLES-PER-SECOND 30
:FULLY-SPECIFIED
:DEGREES
256
root  -58.8164 40.3283 3.34072 -45.6896 -88.0977 41.5542
RightUpLeg  -0.0736578 -8.48792 -1.34191
RightLeg  12.4472 4.80413 1.65508
RightFoot  -9.29898 -0.0249417 -2.12765
RightToes  -1.74624e-010 0 -3.6325e-017
Spine  3.97035 0.965962 10.3366
Spine1  11.913 3.04441 -5.59152
HEad  -28.6047 -6.02262 -3.52068
LeftShoulder1  -0.0943627 3.75709 -31.1348
LeftArm  -6.12857 16.3886 -40.1386
LeftForeArm  37.4191 -7.47552 -7.63154
LeftHand  -0.114461 10.1328 -1.37381
RightShoulder  -0.649808 -5.42461 27.1367
RightArm  23.2947 7.98085 50.4709
RightForeArm  7.10641 22.9011 4.59803
RightHand  -0.16401 5.89988 -2.01253
LeftUpLeg  -14.5015 2.76112 0.350831
LeftLeg  15.1592 -2.02662 -0.335324
LeftFoot  0.261586 0.285718 -2.84908
LeftToes  2.27646e-009 -8.13696e-011 -1.44715e-011
257
root  -59.5124 40.4064 3.42585 -45.3074 -88.0718 40.8383
RightUpLeg  2.25463 -8.54204 -1.7389
RightLeg  10.916 5.0566 1.58239
RightFoot  -9.64836 -0.0397456 -1.73422
RightToes  -1.74624e-010 0 -3.6325e-017
Spine  4.14459 0.899405 9.43068
Spine1  12.1267 2.84098 -5.2765
HEad  -27.1612 -4.96706 -4.76059
LeftShoulder1  -0.148915 3.90617 -30.8436
LeftArm  -7.13283 17.9841 -41.0183
LeftForeArm  36.4881 -7.86925 -7.10574
LeftHand  -0.168595 10.1988 -2.61905
RightShoulder  -0.611031 -5.31313 27.0404
RightArm  24.1811 7.61674 50.4124
RightForeArm  6.26832 21.2718 4.71663
RightHand  -0.18301 6.10761 -2.1785
LeftUpLeg  -12.4314 2.58062 0.0815317
LeftLeg  6.30898 -1.88338 -0.0775177
LeftFoot  2.06339 0.246374 -2.19596
LeftToes  2.27646e-009 -8.13696e-011 -1.44715e-011
258
root  -60.1861 40.3972 3.54964 -36.6634 -88.2958 31.9799
RightUpLeg  3.9345 -8.4254 -1.71239
RightLeg  10.3433 4.9663 1.51269
RightFoot  -10.4302 -0.0595196 -1.35359
RightToes  -1.74624e-010 0 -3.6325e-017
Spine  3.96392 0.895848 9.27807
Spine1  12.6707 2.86478 -5.44679
HEad  -25.9348 -4.40241 -5.56106
LeftShoulder1  -0.0837401 3.73509 -30.0974
LeftArm  -7.719 18.6429 -42.5764
LeftForeArm  36.234 -7.52629 -6.97147
LeftHand  -0.149999 10.2956 -1.98098
RightShoulder  -0.580864 -5.23661 26.7738
RightArm  23.328 7.13803 50.768
RightForeArm  7.59837 18.7856 5.24131
RightHand  -0.16742 5.60582 -2.08988
LeftUpLeg  -11.1734 2.68511 0.0963378
LeftLeg  0.851198 -0.635138 0.0329019
LeftFoot  3.67589 0.294121 -2.37528
LeftToes  2.27646e-009 -8.13696e-011 -1.44715e-011
259
root  -60.9475 40.3122 3.70616 -35.8289 -88.2662 31.122
RightUpLeg  5.0125 -8.69005 -2.18577
RightLeg  10.9784 5.3661 1.57925
RightFoot  -12.0397 -0.0866899 -0.880015
RightToes  -1.74624e-010 0 -3.6325e-017
Spine  3.23135 1.07079 8.53132
Spine1  13.1086 2.91735 -5.11324
HEad  -24.3912 -4.21539 -5.91556
LeftShoulder1  -0.035723 3.60178 -30.2077
LeftArm  -7.20908 18.5359 -42.9888
LeftForeArm  36.8333 -7.50145 -7.28374
LeftHand  -0.0584098 8.971 -0.334119
RightShoulder  -0.589731 -5.26245 26.7739
RightArm  21.6154 6.23831 50.7853
RightForeArm  10.2236 16.008 6.11823
RightHand  -0.162908 4.9684 -2.11121
LeftUpLeg  -10.3467 2.6396 -0.267986
LeftLeg  -1.27304 0.452666 -0.12714
LeftFoot  6.52224 0.28765 -2.14832
LeftToes  2.27646e-009 -8.13696e-011 -1.44715e-011
260
root  -61.7439 40.2003 3.84524 -24.7659 -88.1069 19.5987
RightUpLeg  6.78596 -8.80028 -2.40989
RightLeg  11.3255 5.29055 1.55698
RightFoot  -13.6536 -0.0987387 -0.311193
RightToes  -1.74624e-010 0 -3.6325e-017
Spine  3.18196 1.10986 6.98898
Spine1  12.8509 2.52778 -3.70947
HEad  -22.3937 -3.51487 -6.25242
LeftShoulder1  -0.0965891 3.76213 -31.2629
LeftArm  -6.0297 17.904 -42.4442
LeftForeArm  38.2759 -7.89103 -7.72071
LeftHand  -0.118277 9.3296 -1.90358
RightShoulder  -0.495802 -5.0137 26.0208
RightArm  18.5518 4.22391 51.0796
RightForeArm  14.157 13.2187 6.80341
RightHand  -0.0844164 3.87945 -1.3293
LeftUpLeg  -10.1032 2.69873 -0.598049
LeftLeg  0.633936 0.269108 -0.0255228
LeftFoot  10.4844 -0.187262 0.647945
LeftToes  2.27646e-009 -8.13696e-011 -1.44715e-011
261
root  -62.5625 40.1383 3.99663 -30.0229 -87.7251 24.3028
RightUpLeg  8.74779 -8.59888 -3.03915
RightLeg  11.4587 5.12672 1.11576
RightFoot  -14.9455 -0.0872496 0.428469
RightToes  -1.74624e-010 0 -3.6325e-017
Spine  2.98468 1.16796 5.56619
Spine1  12.9919 2.58164 -3.72092
HEad  -20.5631 -2.18779 -6.56232
LeftShoulder1  -0.150871 3.89811 -32.1434
LeftArm  -5.07856 16.5155 -41.8143
LeftForeArm  39.3476 -8.40784 -8.00268
LeftHand  -0.166035 10.1697 -2.51695
RightShoulder  -0.503883 -5.03553 26.0587
RightArm  16.1782 1.76517 51.1041
RightForeArm  16.6384 11.2125 7.08581
RightHand  -0.0997756 3.82998 -1.51583
LeftUpLeg  -10.129 2.9565 -1.27933
LeftLeg  4.01666 0.0245176 -0.231813
LeftFoot  10.4333 -0.805014 3.86669
LeftToes  2.27646e-009 -8.13696e-011 -1.44715e-011
262
root  -63.3571 40.056 4.12641 -41.3631 -86.8274 34.9048
RightUpLeg  10.3642 -8.25399 -4.17062
RightLeg  12.696 4.76322 0.641042
RightFoot  -16.3363 -0.0640643 1.07958
RightToes  -1.74624e-010 0 -3.6325e-017
Spine  3.20079 1.11711 3.75048
Spine1  13.0584 2.63955 -4.17652
HEad  -19.0348 0.0957767 -6.511
LeftShoulder1  -0.176366 3.96221 -32.3689
LeftArm  -4.13746 14.1966 -41.5597
LeftForeArm  39.0144 -8.61331 -8.30381
LeftHand  -0.218852 10.6228 -3.36675
RightShoulder  -0.627207 -5.35875 27.0898
RightArm  14.8431 -0.310757 50.8789
RightForeArm  17.5595 9.46052 7.31547
RightHand  -0.125459 4.02524 -1.81587
LeftUpLeg  -9.94164 3.08446 -2.36702
LeftLeg  7.88164 -0.186459 -0.319215
LeftFoot  7.52457 -0.717816 4.03897
LeftToes  2.27646e-009 -8.13696e-011 -1.44715e-011
263
root  -64.1251 40.0226 4.26694 -50.0681 -86.0328 43.2674
RightUpLeg  10.6661 -7.42495 -5.32281
RightLeg  15.4148 3.85389 0.6637
RightFoot  -16.8952 -0.0104442 2.13401
RightToes  -1.74624e-010 0 -3.6325e-017
Spine  3.02051 0.990905 2.77863
Spine1  13.4129 3.02568 -5.93841
HEad  -18.511 3.5499 -6.16109
LeftShoulder1  -0.159986 3.9354 -30.933
LeftArm  -4.3628 11.854 -42.8028
LeftForeArm  36.8053 -8.94405 -8.17824
LeftHand  -0.118058 9.85023 -1.64028
RightShoulder  -0.708009 -5.54691 28.0013
RightArm  13.6497 -2.71243 51.4539
RightForeArm  18.6057 8.17726 7.26383
RightHand  -0.102349 3.85656 -1.55095
LeftUpLeg  -9.36595 3.35578 -3.38561
LeftLeg  10.0902 -0.82729 -0.483257
LeftFoot  5.58264 -0.657934 4.18928
LeftToes  2.27646e-009 -8.13696e-011 -1.44715e-011
264
root  -64.7788 40.0485 4.4572 -64.2628 -86.1505 56.8989
RightUpLeg  10.2063 -5.22252 -6.09042
RightLeg  19.2675 3.28478 1.07329
RightFoot  -16.7327 0.141249 5.42284
RightToes  -1.74624e-010 0 -3.6325e-017
Spine  3.35731 1.27074 2.38061
Spine1  13.7861 3.59879 -7.26766
HEad  -19.0529 7.61676 -7.2696
LeftShoulder1  -0.141022 3.88547 -30.8028
LeftArm  -5.17215 9.7062 -43.9109
LeftForeArm  35.6456 -9.98817 -7.52943
LeftHand  -0.102433 9.14175 -1.49889
RightShoulder  -0.679622 -5.48566 27.5927
RightArm  13.3286 -4.87588 52.1808
RightForeArm  19.1774 7.69386 7.25694
RightHand  -0.0840396 3.79315 -1.31028
LeftUpLeg  -8.03715 3.63596 -3.94319
LeftLeg  11.0345 -0.294997 -0.406357
LeftFoot  4.11252 -0.641594 4.54993
LeftToes  2.27646e-009 -8.13696e-011 -1.44715e-011
265
root  -65.3326 40.0388 4.6138 -73.2084 -86.3954 66.0011
RightUpLeg  7.75894 -4.13202 -6.5401
RightLeg  25.0414 3.96729 1.80861
RightFoot  -15.6672 0.23059 8.95815
RightToes  -1.74624e-010 0 -3.6325e-017
Spine  4.06771 1.24608 0.843857
Spine1  12.6358 3.11232 -6.73005
HEad  -20.225 11.4469 -8.563
LeftShoulder1  -0.214267 4.0825 -30.911
LeftArm  -3.19923 8.79143 -44.8037
LeftForeArm  30.9729 -12.7953 -6.98347
LeftHand  -0.0420908 9.05378 0.197051
RightShoulder  -0.57326 -5.19955 27.0581
RightArm  14.9294 -6.4878 52.253
RightForeArm  21.0531 8.27815 7.65036
RightHand  -0.0291546 2.92028 -0.636389
LeftUpLeg  -7.93962 4.38323 -4.03019
LeftLeg  12.4725 -0.373036 -0.597128
LeftFoot  2.81219 -0.696591 5.46521
LeftToes  2.27646e-009 -8.13696e-011 -1.44715e-011
